HIERARCHY
ROOT hip
{
  OFFSET 0 0 0
  CHANNELS 6 Xposition Yposition Zposition Zrotation Yrotation Xrotation
  JOINT abdomen
  {
    OFFSET 0 20.6881 -0.73152
    CHANNELS 3 Zrotation Xrotation Yrotation
    JOINT chest
    {
      OFFSET 0 11.7043 -0.48768
      CHANNELS 3 Zrotation Xrotation Yrotation
      JOINT neck
      {
        OFFSET 0 22.1894 -2.19456
        CHANNELS 3 Zrotation Xrotation Yrotation
        JOINT head
        {
          OFFSET -0.24384 7.07133 1.2192
          CHANNELS 3 Zrotation Xrotation Yrotation
          JOINT leftEye
          {
            OFFSET 4.14528 8.04674 8.04672
            CHANNELS 3 Zrotation Xrotation Yrotation
            End Site
            {
              OFFSET 1 0 0
            }
          }
          JOINT rightEye
          {
            OFFSET -3.6576 8.04674 8.04672
            CHANNELS 3 Zrotation Xrotation Yrotation
            End Site
            {
              OFFSET 1 0 0
            }
          }
        }
      }
      JOINT rCollar
      {
        OFFSET -2.68224 19.2634 -4.8768
        CHANNELS 3 Zrotation Xrotation Yrotation
        JOINT rShldr
        {
          OFFSET -8.77824 -1.95073 1.46304
          CHANNELS 3 Zrotation Xrotation Yrotation
          JOINT rForeArm
          {
            OFFSET -28.1742 -1.7115 0.48768
            CHANNELS 3 Zrotation Xrotation Yrotation
            JOINT rHand
            {
              OFFSET -22.5879 0.773209 7.07136
              CHANNELS 3 Zrotation Xrotation Yrotation
              JOINT rThumb1
              {
                OFFSET -1.2192 -0.487915 3.41376
                CHANNELS 3 Zrotation Xrotation Yrotation
                JOINT rThumb2
                {
                  OFFSET -3.37035 -0.52449 3.41376
                  CHANNELS 3 Zrotation Xrotation Yrotation
                  End Site
                  {
                    OFFSET -1.78271 -1.18214 1.43049
                  }
                }
              }
              JOINT rIndex1
              {
                OFFSET -7.75947 0.938293 5.60832
                CHANNELS 3 Zrotation Xrotation Yrotation
                JOINT rIndex2
                {
                  OFFSET -2.54057 -0.884171 1.56538
                  CHANNELS 3 Zrotation Xrotation Yrotation
                  End Site
                  {
                    OFFSET -1.62519 -0.234802 1.16502
                  }
                }
              }
              JOINT rMid1
              {
                OFFSET -8.24714 1.18213 3.41376
                CHANNELS 3 Zrotation Xrotation Yrotation
                JOINT rMid2
                {
                  OFFSET -3.10165 -0.590103 1.0647
                  CHANNELS 3 Zrotation Xrotation Yrotation
                  End Site
                  {
                    OFFSET -2.48547 -0.328903 0.83742
                  }
                }
              }
              JOINT rRing1
              {
                OFFSET -8.82822 0.546677 1.51678
                CHANNELS 3 Zrotation Xrotation Yrotation
                JOINT rRing2
                {
                  OFFSET -2.60934 -0.819778 -0.0198488
                  CHANNELS 3 Zrotation Xrotation Yrotation
                  End Site
                  {
                    OFFSET -2.33842 -0.294052 0.168128
                  }
                }
              }
              JOINT rPinky1
              {
                OFFSET -8.27202 -0.0477905 -0.4584
                CHANNELS 3 Zrotation Xrotation Yrotation
                JOINT rPinky2
                {
                  OFFSET -1.82734 -0.647385 -0.700984
                  CHANNELS 3 Zrotation Xrotation Yrotation
                  End Site
                  {
                    OFFSET -1.69225 -0.51767 -0.607171
                  }
                }
              }
            }
          }
        }
      }
      JOINT lCollar
      {
        OFFSET 2.68224 19.2634 -4.8768
        CHANNELS 3 Zrotation Xrotation Yrotation
        JOINT lShldr
        {
          OFFSET 8.77824 -1.95073 1.46304
          CHANNELS 3 Zrotation Xrotation Yrotation
          JOINT lForeArm
          {
            OFFSET 28.1742 -1.7115 0.48768
            CHANNELS 3 Zrotation Xrotation Yrotation
            JOINT lHand
            {
              OFFSET 22.5879 0.773209 7.07136
              CHANNELS 3 Zrotation Xrotation Yrotation
              JOINT lThumb1
              {
                OFFSET 1.2192 -0.487915 3.41376
                CHANNELS 3 Zrotation Xrotation Yrotation
                JOINT lThumb2
                {
                  OFFSET 3.37035 -0.52449 3.41376
                  CHANNELS 3 Zrotation Xrotation Yrotation
                  End Site
                  {
                    OFFSET 1.78271 -1.18214 1.43049
                  }
                }
              }
              JOINT lIndex1
              {
                OFFSET 7.75947 0.938293 5.60832
                CHANNELS 3 Zrotation Xrotation Yrotation
                JOINT lIndex2
                {
                  OFFSET 2.54057 -0.884171 1.56538
                  CHANNELS 3 Zrotation Xrotation Yrotation
                  End Site
                  {
                    OFFSET 1.62519 -0.234802 1.16502
                  }
                }
              }
              JOINT lMid1
              {
                OFFSET 8.24714 1.18213 3.41376
                CHANNELS 3 Zrotation Xrotation Yrotation
                JOINT lMid2
                {
                  OFFSET 3.10165 -0.590103 1.0647
                  CHANNELS 3 Zrotation Xrotation Yrotation
                  End Site
                  {
                    OFFSET 2.48547 -0.328903 0.83742
                  }
                }
              }
              JOINT lRing1
              {
                OFFSET 8.82822 0.546677 1.51678
                CHANNELS 3 Zrotation Xrotation Yrotation
                JOINT lRing2
                {
                  OFFSET 2.60934 -0.819778 -0.0198488
                  CHANNELS 3 Zrotation Xrotation Yrotation
                  End Site
                  {
                    OFFSET 2.33842 -0.294052 0.168128
                  }
                }
              }
              JOINT lPinky1
              {
                OFFSET 8.27202 -0.0477905 -0.4584
                CHANNELS 3 Zrotation Xrotation Yrotation
                JOINT lPinky2
                {
                  OFFSET 1.82734 -0.647385 -0.700984
                  CHANNELS 3 Zrotation Xrotation Yrotation
                  End Site
                  {
                    OFFSET 1.69225 -0.51767 -0.607171
                  }
                }
              }
            }
          }
        }
      }
    }
  }
  JOINT rButtock
  {
    OFFSET -8.77824 4.35084 1.2192
    CHANNELS 3 Zrotation Xrotation Yrotation
    JOINT rThigh
    {
      OFFSET 0 -1.70687 -2.19456
      CHANNELS 3 Zrotation Xrotation Yrotation
      JOINT rShin
      {
        OFFSET 0 -36.8199 0.73152
        CHANNELS 3 Zrotation Xrotation Yrotation
        JOINT rFoot
        {
          OFFSET 0.73152 -45.1104 -5.12064
          CHANNELS 3 Zrotation Xrotation Yrotation
          End Site
          {
            OFFSET -1.1221 -3.69964 12.103
          }
        }
      }
    }
  }
  JOINT lButtock
  {
    OFFSET 8.77824 4.35084 1.2192
    CHANNELS 3 Zrotation Xrotation Yrotation
    JOINT lThigh
    {
      OFFSET 0 -1.70687 -2.19456
      CHANNELS 3 Zrotation Xrotation Yrotation
      JOINT lShin
      {
        OFFSET 0 -36.8199 0.73152
        CHANNELS 3 Zrotation Xrotation Yrotation
        JOINT lFoot
        {
          OFFSET -0.73152 -45.1104 -5.12064
          CHANNELS 3 Zrotation Xrotation Yrotation
          End Site
          {
            OFFSET 1.1221 -3.69964 12.103
          }
        }
      }
    }
  }
}
MOTION
Frames:	6
Frame Time:	0.00833333
48.4422 85.5269 255.259 0.0 0.0 0.0 2.34101 -0.00222417 0.0637214 0.646596 0.00594985 0.111938 -6.19423e-14 0.0 -5.96354e-16 -1.84808e-13 3.18055e-15 -1.76421e-15 -0.0 0.0 0.0 -0.0 0.0 0.0 -3.08634e-14 4.34841e-17 -1.49089e-16 -6.47472e-13 4.03781e-16 -7.55382e-15 -1.11827e-11 3.36721e-12 -6.36111e-15 -1.27767e-10 -3.18851e-12 -1.47896e-12 -3.01428e-10 3.91588e-13 -3.18055e-12 -5.20563e-10 6.74278e-13 -5.46658e-12 -3.01425e-10 3.91606e-13 -3.18692e-12 7.73091 5.47488 0.417314 -3.01429e-10 3.91109e-13 -3.17101e-12 2.90554 0.965183 0.102902 -3.01424e-10 3.91805e-13 -3.17181e-12 10.2786 0.731801 0.0259123 -3.01437e-10 3.95979e-13 -3.16465e-12 2.22167 -0.733487 -0.20892 -3.09607e-14 4.60078e-17 -4.47265e-16 -6.51768e-13 8.19987e-16 -9.1441e-15 -1.1151e-11 -3.3205e-12 -4.77083e-14 -1.27833e-10 3.51315e-12 -1.42171e-12 -3.0149e-10 4.19677e-13 -3.17419e-12 -5.20655e-10 7.21986e-13 -5.47692e-12 -3.01496e-10 4.21424e-13 -3.16465e-12 -7.73091 5.47488 -0.417314 -3.01491e-10 4.2033e-13 -3.18055e-12 -2.90554 0.965183 -0.102902 -3.01498e-10 4.20032e-13 -3.17737e-12 -10.2786 0.731801 -0.0259123 -3.01485e-10 4.20231e-13 -3.18692e-12 -2.22167 -0.733487 0.20892 -2.03217e-16 0.0 -3.88251e-19 2.21551 -8.02973 -0.231361 0.00607155 8.97368 0.15207 -0.477717 -0.951455 0.034867 2.03217e-16 0.0 3.88251e-19 1.35209 -1.92788 -0.00535843 0.00846634 -2.07867 0.069458 0.423833 3.99897 -0.127286
49.6913 83.8639 243.988 -176.834 -0.8379 -177.467 -0.97236 1.27012 1.28855 0.194258 -1.59132 0.352151 -2.40965 2.89347 -0.493406 5.52623 0.729981 -2.07887 -0.0 0.0 0.0 -0.0 0.0 0.0 -4.45473e-15 5.75214e-15 3.57618e-15 23.4192 25.8381 5.7215 -5.66339 -2.94555 8.40399 0.0259669 3.57573 0.499007 -2.65164e-10 -9.28709e-11 1.32322e-11 -4.58097e-10 -1.6125e-10 2.35405e-11 -2.65161e-10 -9.28703e-11 1.3225e-11 7.73091 5.47488 0.417314 -2.65165e-10 -9.28713e-11 1.32392e-11 2.90554 0.965183 0.102902 -2.6516e-10 -9.28717e-11 1.32378e-11 10.2786 0.731801 0.0259123 -2.65172e-10 -9.28678e-11 1.32453e-11 2.22167 -0.733487 -0.20892 -4.55607e-15 5.74589e-15 3.24617e-15 -22.3908 28.9722 -5.4517 24.3334 -22.1771 -14.6026 -0.144724 -8.45605 1.14221 -1.83408e-10 1.4911e-11 6.93029e-11 -3.18047e-10 2.62943e-11 1.20166e-10 -1.83414e-10 1.49137e-11 6.93153e-11 -7.73091 5.47488 -0.417314 -1.83409e-10 1.49116e-11 6.93001e-11 -2.90554 0.965183 -0.102902 -1.83416e-10 1.49113e-11 6.93019e-11 -10.2786 0.731801 -0.0259123 -1.83404e-10 1.49118e-11 6.92939e-11 -2.22167 -0.733487 0.20892 -2.03217e-16 0.0 -3.88251e-19 4.09966 -10.5836 2.49126 0.0236384 15.667 0.273164 -1.46734 -5.75783 -5.97476 2.03217e-16 0.0 3.88251e-19 0.672694 -5.50938 -6.18181 -0.0512155 6.88675 -0.15729 1.35729 -3.68935 5.34441
49.6744 83.8706 243.98 -176.9 -0.8574 -177.511 -4.53298 2.60852 2.5852 -0.26703 -3.27768 0.607132 -4.90488 5.95283 -1.01855 11.4231 1.50129 -4.27728 -0.0 0.0 0.0 -0.0 0.0 0.0 2.56601e-14 1.22396e-14 6.41391e-15 39.4232 52.0953 17.4063 -10.7214 -5.84849 17.3591 -0.0148195 7.35583 1.03316 -2.542e-10 -2.12096e-10 2.29946e-11 -4.39481e-10 -3.68459e-10 4.14386e-11 -2.54197e-10 -2.12095e-10 2.29865e-11 7.73091 5.47488 0.417314 -2.54202e-10 -2.12097e-10 2.2999e-11 2.90554 0.965183 0.102902 -2.54196e-10 -2.12098e-10 2.29969e-11 10.2786 0.731801 0.0259123 -2.54207e-10 -2.12094e-10 2.30048e-11 2.22167 -0.733487 -0.20892 2.55535e-14 1.22247e-14 6.0474e-15 -35.1756 58.4161 -18.9806 35.0686 -40.3163 -37.6707 0.084808 -17.3886 2.43609 -5.57366e-11 4.48647e-11 1.66298e-10 -9.93841e-11 7.86796e-11 2.88181e-10 -5.57411e-11 4.48685e-11 1.66314e-10 -7.73091 5.47488 -0.417314 -5.57368e-11 4.48653e-11 1.66299e-10 -2.90554 0.965183 -0.102902 -5.57442e-11 4.4865e-11 1.66299e-10 -10.2786 0.731801 -0.0259123 -5.57321e-11 4.48659e-11 1.66293e-10 -2.22167 -0.733487 0.20892 -2.03217e-16 0.0 -3.88251e-19 6.36118 -13.2445 5.42348 0.00864961 22.7426 0.414542 -3.61863 -10.6534 -12.4821 2.03217e-16 0.0 3.88251e-19 -0.889773 -9.12939 -12.8219 -0.0345737 16.3629 -0.411379 3.96032 -11.6285 11.3449
49.6569 83.8792 243.964 -176.952 -0.9058 -177.616 -7.76248 3.80765 3.74554 -0.670109 -4.78545 0.835079 -7.078 8.67781 -1.49546 16.7374 2.17841 -6.24062 -0.0 0.0 0.0 -0.0 0.0 0.0 4.83626e-14 1.71695e-14 1.10267e-14 26.71 70.4427 52.7018 -14.4695 -8.07772 25.4486 -0.111756 10.7239 1.52067 -1.92636e-10 -2.79396e-10 4.60577e-11 -3.33165e-10 -4.85098e-10 8.15546e-11 -1.92633e-10 -2.79394e-10 4.60487e-11 7.73091 5.47488 0.417314 -1.92638e-10 -2.79396e-10 4.60597e-11 2.90554 0.965183 0.102902 -1.92632e-10 -2.79399e-10 4.60571e-11 10.2786 0.731801 0.0259123 -1.92642e-10 -2.79395e-10 4.60653e-11 2.22167 -0.733487 -0.20892 4.82531e-14 1.71456e-14 1.0633e-14 3.87358 75.4397 -79.3319 31.0511 -45.0397 -66.8021 0.667962 -25.3256 3.75025 5.27547e-11 4.38936e-11 2.14257e-10 8.71688e-11 7.74388e-11 3.71451e-10 5.27505e-11 4.38981e-11 2.14275e-10 -7.73091 5.47488 -0.417314 5.27546e-11 4.38941e-11 2.14261e-10 -2.90554 0.965183 -0.102902 5.2747e-11 4.38938e-11 2.1426e-10 -10.2786 0.731801 -0.0259123 5.27589e-11 4.3895e-11 2.14256e-10 -2.22167 -0.733487 0.20892 -2.03217e-16 0.0 -3.88251e-19 8.61878 -15.5714 8.10406 -0.0388155 29.053 0.558965 -6.50179 -14.6981 -18.5306 2.03217e-16 0.0 3.88251e-19 -3.00094 -12.102 -18.8837 0.0587061 24.8162 -0.669076 7.7476 -18.3224 17.148
49.6474 83.884 243.962 -176.984 -0.9173 -177.672 -10.0498 4.66532 4.5583 -0.956165 -5.84716 0.993126 -8.55269 10.5693 -1.83728 20.4826 2.63116 -7.61237 -0.0 0.0 0.0 -0.0 0.0 0.0 5.25343e-14 1.82051e-14 2.00773e-14 -9.98925 70.5758 103.99 -16.6924 -9.34684 31.1485 -0.214041 13.0651 1.86901 -4.57046e-12 -2.16882e-10 1.02373e-10 -7.59675e-12 -3.75315e-10 1.77215e-10 -4.56767e-12 -2.1688e-10 1.02363e-10 7.73091 5.47488 0.417314 -4.57259e-12 -2.16882e-10 1.02373e-10 2.90554 0.965183 0.102902 -4.56624e-12 -2.16885e-10 1.0237e-10 10.2786 0.731801 0.0259123 -4.57543e-12 -2.16882e-10 1.02379e-10 2.22167 -0.733487 -0.20892 5.24277e-14 1.81717e-14 1.96797e-14 42.8427 66.2677 -131.882 28.0194 -40.3111 -84.481 1.32587 -30.8144 4.80857 1.13295e-10 -3.43897e-11 1.39626e-10 1.93447e-10 -5.7867e-11 2.42858e-10 1.1329e-10 -3.4385e-11 1.39645e-10 -7.73091 5.47488 -0.417314 1.13295e-10 -3.43893e-11 1.39633e-10 -2.90554 0.965183 -0.102902 1.13287e-10 -3.43896e-11 1.3963e-10 -10.2786 0.731801 -0.0259123 1.13298e-10 -3.43882e-11 1.39626e-10 -2.22167 -0.733487 0.20892 -2.03217e-16 0.0 -3.88251e-19 10.3333 -17.1649 10.0212 -0.0947285 33.4512 0.674177 -9.0465 -17.2495 -22.9303 2.03217e-16 0.0 3.88251e-19 -4.85438 -13.9845 -23.1871 0.17658 30.7137 -0.878073 11.2436 -22.6412 21.5553
49.6409 83.8765 243.997 -177.008 -0.9387 -177.579 -10.9728 5.05648 4.87836 -1.0935 -6.28752 1.05081 -9.09189 11.2833 -1.97834 21.9759 2.79162 -8.15272 -0.0 0.0 0.0 -0.0 0.0 0.0 2.24976e-14 1.36476e-14 3.90457e-14 -18.997 66.9311 118.469 -17.4808 -9.76529 33.3854 -0.261559 13.9676 2.00589 4.48841e-10 8.4041e-11 2.41744e-10 7.77863e-10 1.50611e-10 4.12618e-10 4.48843e-10 8.40446e-11 2.41734e-10 7.73091 5.47488 0.417314 4.48839e-10 8.40434e-11 2.41742e-10 2.90554 0.965183 0.102902 4.48846e-10 8.40402e-11 2.41741e-10 10.2786 0.731801 0.0259123 4.48837e-10 8.40413e-11 2.41751e-10 2.22167 -0.733487 -0.20892 2.24038e-14 1.36021e-14 3.86838e-14 46.0725 60.0836 -140.107 27.9718 -37.1456 -89.5424 1.64095 -32.8809 5.25164 9.05602e-11 -2.76137e-10 -1.8281e-10 1.611e-10 -4.76681e-10 -3.14027e-10 9.05535e-11 -2.76133e-10 -1.82793e-10 -7.73091 5.47488 -0.417314 9.05606e-11 -2.76137e-10 -1.82803e-10 -2.90554 0.965183 -0.102902 9.05521e-11 -2.76137e-10 -1.82807e-10 -10.2786 0.731801 -0.0259123 9.05632e-11 -2.76136e-10 -1.82811e-10 -2.22167 -0.733487 0.20892 -2.03217e-16 0.0 -3.88251e-19 11.0412 -17.7947 10.7959 -0.122584 35.1744 0.722716 -10.1567 -18.1521 -24.7102 2.03217e-16 0.0 3.88251e-19 -5.65062 -14.6952 -24.8432 0.236557 33.0338 -0.967845 12.7718 -24.2019 23.3332
